HIERARCHY
ROOT joint_Root
{
	OFFSET 0.0 0.0 0.0
	CHANNELS 6 Xposition Yposition Zposition Zrotation Xrotation Yrotation 
	JOINT Hips
	{
		OFFSET 4.5925 91.4895 -427.239
		CHANNELS 6 Xposition Yposition Zposition Zrotation Xrotation Yrotation 
		JOINT Spine
		{
			OFFSET 15.7357 0.0 0.0
			CHANNELS 6 Xposition Yposition Zposition Zrotation Xrotation Yrotation 
			JOINT Chest
			{
				OFFSET 8.98455 -0.406207 0.0
				CHANNELS 6 Xposition Yposition Zposition Zrotation Xrotation Yrotation 
				JOINT Neck
				{
					OFFSET 16.3773 0.0 0.0
					CHANNELS 6 Xposition Yposition Zposition Zrotation Xrotation Yrotation 
					JOINT Head
					{
						OFFSET 6.45672 0.0 0.0
						CHANNELS 6 Xposition Yposition Zposition Zrotation Xrotation Yrotation 
						End Site
						{
							OFFSET 0.0 0.0 0.0
						}
					}
				}
				JOINT Shoulder_L
				{
					OFFSET 12.9942 -0.242716 4.98039
					CHANNELS 6 Xposition Yposition Zposition Zrotation Xrotation Yrotation 
					JOINT UpperArm_L
					{
						OFFSET 5.34809 0.0 0.0
						CHANNELS 6 Xposition Yposition Zposition Zrotation Xrotation Yrotation 
						JOINT LowerArm_L
						{
							OFFSET 24.3286 1.87007e-05 0.0
							CHANNELS 6 Xposition Yposition Zposition Zrotation Xrotation Yrotation 
							JOINT Hand_L
							{
								OFFSET 22.2916 0.0 0.0
								CHANNELS 6 Xposition Yposition Zposition Zrotation Xrotation Yrotation 
								End Site
								{
									OFFSET 0.0 0.0 0.0
								}
							}
						}
					}
				}
				JOINT Shoulder_R
				{
					OFFSET 12.9945 -0.242716 -4.98039
					CHANNELS 6 Xposition Yposition Zposition Zrotation Xrotation Yrotation 
					JOINT UpperArm_R
					{
						OFFSET -5.34813 0.0 0.0
						CHANNELS 6 Xposition Yposition Zposition Zrotation Xrotation Yrotation 
						JOINT LowerArm_R
						{
							OFFSET -24.3289 0.000322201 0.0
							CHANNELS 6 Xposition Yposition Zposition Zrotation Xrotation Yrotation 
							JOINT Hand_R
							{
								OFFSET -22.2915 -0.000108084 0.0
								CHANNELS 6 Xposition Yposition Zposition Zrotation Xrotation Yrotation 
								End Site
								{
									OFFSET 0.0 0.0 0.0
								}
							}
						}
					}
				}
			}
		}
		JOINT UpperLeg_L
		{
			OFFSET -2.19248 -6.46944 0.0
			CHANNELS 6 Xposition Yposition Zposition Zrotation Xrotation Yrotation 
			JOINT LowerLeg_L
			{
				OFFSET 39.0811 0.0 -1.23785e-05
				CHANNELS 6 Xposition Yposition Zposition Zrotation Xrotation Yrotation 
				JOINT Foot_L
				{
					OFFSET 40.9854 0.0 -1.26872e-05
					CHANNELS 6 Xposition Yposition Zposition Zrotation Xrotation Yrotation 
					JOINT Toes_L
					{
						OFFSET 11.7543 0.0 0.0
						CHANNELS 6 Xposition Yposition Zposition Zrotation Xrotation Yrotation 
						End Site
						{
							OFFSET 0.0 0.0 0.0
						}
					}
				}
			}
		}
		JOINT UpperLeg_R
		{
			OFFSET -2.19251 6.46944 0.0
			CHANNELS 6 Xposition Yposition Zposition Zrotation Xrotation Yrotation 
			JOINT LowerLeg_R
			{
				OFFSET -39.0811 -0.00228153 -0.0401928
				CHANNELS 6 Xposition Yposition Zposition Zrotation Xrotation Yrotation 
				JOINT Foot_R
				{
					OFFSET -40.9854 0.0 0.0
					CHANNELS 6 Xposition Yposition Zposition Zrotation Xrotation Yrotation 
					JOINT Toes_R
					{
						OFFSET -11.7543 0.0 0.0
						CHANNELS 6 Xposition Yposition Zposition Zrotation Xrotation Yrotation 
						End Site
						{
							OFFSET 0.0 0.0 0.0
						}
					}
				}
			}
		}
	}
}
MOTION
Frames:	9
Frame Time:	0.0333333
0.000000 0.000000 0.000000 0.000000 0.000000 -0.000000 0.161602 91.330800 1.911970 89.512100 -2.455860 3.556780 15.735700 0.000005 -0.000001 85.169400 87.827200 -85.804700 8.984550 -0.406207 -0.000000 -3.437320 -0.303667 -1.280020 16.377300 -0.000001 -0.000001 5.072370 -2.839620 2.452560 6.456720 -0.000001 -0.000000 -1.784980 -1.819470 2.618560 12.994200 -0.242716 4.980390 -84.252700 -11.639100 -63.486100 5.348090 -0.000007 -0.000001 -53.881800 -50.193200 -110.690000 24.328600 0.000019 0.000005 18.507400 18.125600 -47.096600 22.291600 -0.000001 0.000005 23.155100 5.381870 -2.357580 12.994500 -0.242716 -4.980390 93.604700 -10.097200 -70.235000 -5.348130 -0.000001 -0.000004 -50.268900 -49.327100 -105.877000 -24.328900 0.000322 -0.000009 5.315450 4.969010 -47.056900 -22.291500 -0.000108 -0.000004 21.804200 5.588940 -10.701000 -2.192480 -6.469440 -0.000000 -176.410000 -11.994600 -3.118960 39.081100 -0.000007 -0.000012 -0.163569 0.324758 26.733000 40.985400 -0.000006 -0.000013 -0.028720 3.891650 -69.979700 11.754300 -0.000000 0.000003 -0.000255 -0.002269 -16.662500 -2.192510 6.469440 -0.000001 175.241000 21.643900 178.943000 -39.081100 -0.002282 -0.040193 0.012176 -0.018216 25.952300 -40.985400 0.000008 0.000006 6.529290 13.505900 -71.724200 -11.754300 -0.000006 -0.000006 -0.001396 -0.007831 -16.844000
0.000000 0.000000 0.000000 0.000000 0.000000 -0.000000 0.191410 91.373200 1.715650 89.529700 -2.504240 3.455710 15.735700 0.000005 -0.000001 86.141100 87.718100 -86.797800 8.984550 -0.406207 -0.000000 -3.213700 -0.244099 -1.320480 16.377300 -0.000001 -0.000001 4.770030 -2.724610 2.516740 6.456720 -0.000001 -0.000000 -1.960430 -1.537790 2.916460 12.994200 -0.242716 4.980390 -84.651000 -10.859300 -63.573600 5.348090 -0.000007 -0.000001 -51.693400 -49.766500 -106.998000 24.328600 0.000019 0.000005 18.068000 16.096900 -49.640000 22.291600 -0.000001 0.000005 23.278900 5.371150 -2.022020 12.994500 -0.242716 -4.980390 93.352700 -9.448870 -70.361200 -5.348130 -0.000001 -0.000004 -49.285800 -48.813500 -103.586000 -24.328900 0.000322 -0.000009 3.816890 3.263840 -49.535500 -22.291500 -0.000108 -0.000004 21.085300 5.571120 -9.742640 -2.192480 -6.469440 -0.000000 -176.431000 -12.383900 -3.286930 39.081100 -0.000007 -0.000012 -0.160212 0.319919 26.601400 40.985400 -0.000006 -0.000013 0.074818 4.209430 -69.776700 11.754300 -0.000000 0.000003 -0.000267 -0.002362 -16.665900 -2.192510 6.469440 -0.000001 175.260000 21.831200 178.782000 -39.081100 -0.002282 -0.040193 0.011874 -0.017729 25.781100 -40.985400 0.000008 0.000006 6.536360 13.749500 -71.586100 -11.754300 -0.000006 -0.000006 -0.000560 -0.008943 -16.937100
0.000000 0.000000 0.000000 0.000000 0.000000 -0.000000 0.221263 91.402100 1.511310 89.541800 -2.526930 3.413570 15.735700 0.000005 -0.000001 86.326900 87.576900 -86.983300 8.984550 -0.406207 -0.000000 -2.930960 -0.249087 -1.319300 16.377300 -0.000001 -0.000001 4.360710 -2.682010 2.588610 6.456720 -0.000001 -0.000000 -2.125480 -1.333780 3.074870 12.994200 -0.242716 4.980390 -85.160800 -9.911940 -63.810400 5.348090 -0.000007 -0.000001 -49.194100 -48.805400 -101.863000 24.328600 0.000019 0.000005 18.191400 13.749100 -54.125000 22.291600 -0.000001 0.000005 23.081900 5.360400 -1.692340 12.994500 -0.242716 -4.980390 93.081300 -8.765710 -70.545300 -5.348130 -0.000001 -0.000004 -48.005900 -47.681200 -100.210000 -24.328900 0.000322 -0.000009 3.050040 2.278150 -53.290500 -22.291500 -0.000108 -0.000004 20.601500 5.553400 -8.867030 -2.192480 -6.469440 -0.000000 -176.441000 -12.758100 -3.458660 39.081100 -0.000007 -0.000012 -0.156985 0.313942 26.567400 40.985400 -0.000006 -0.000013 0.191585 4.545240 -69.610700 11.754300 -0.000000 0.000003 -0.000254 -0.002260 -16.662200 -2.192510 6.469440 -0.000001 175.260000 22.032000 178.635000 -39.081100 -0.002282 -0.040193 0.011711 -0.017453 25.702000 -40.985400 0.000008 0.000006 6.565700 13.970300 -71.485900 -11.754300 -0.000006 -0.000006 -0.000575 -0.009166 -16.946100
0.000000 0.000000 0.000000 0.000000 0.000000 -0.000000 0.257460 91.421400 1.306710 89.548200 -2.516430 3.453560 15.735700 0.000005 -0.000001 86.667900 87.373500 -87.322700 8.984550 -0.406207 -0.000000 -2.523000 -0.246452 -1.314940 16.377300 -0.000001 -0.000001 3.760470 -2.690110 2.666060 6.456720 -0.000001 -0.000000 -2.318690 -1.203290 3.155550 12.994200 -0.242716 4.980390 -85.796200 -8.709170 -64.107100 5.348090 -0.000007 -0.000001 -46.254700 -47.174100 -95.484000 24.328600 0.000019 0.000005 18.750300 11.230700 -60.156300 22.291600 -0.000001 0.000005 23.415400 5.346630 -1.276720 12.994500 -0.242716 -4.980390 92.712100 -7.725080 -70.587000 -5.348130 -0.000001 -0.000004 -46.112300 -45.890800 -95.703300 -24.328900 0.000322 -0.000009 2.897370 1.784740 -58.407700 -22.291500 -0.000108 -0.000004 20.545800 5.536650 -8.090460 -2.192480 -6.469440 -0.000000 -176.464000 -12.876000 -3.576260 39.081100 -0.000007 -0.000012 -0.155805 0.311343 26.584900 40.985400 -0.000006 -0.000013 0.258512 4.673190 -69.476400 11.754300 -0.000000 0.000003 -0.000262 -0.002321 -16.664400 -2.192510 6.469440 -0.000001 175.254000 22.160800 178.553000 -39.081100 -0.002282 -0.040193 0.012122 -0.018341 25.661800 -40.985400 0.000008 0.000006 6.608920 14.058500 -71.420900 -11.754300 -0.000006 -0.000006 -0.000417 -0.006739 -16.847500
0.000000 0.000000 0.000000 0.000000 0.000000 -0.000000 0.289531 91.420400 1.111110 89.534100 -2.442560 3.582130 15.735700 0.000005 -0.000001 87.152000 87.161600 -87.798500 8.984550 -0.406207 -0.000000 -2.097220 -0.226352 -1.296990 16.377300 -0.000001 -0.000001 3.228800 -2.722930 2.695280 6.456720 -0.000001 -0.000000 -2.527000 -1.288560 3.327640 12.994200 -0.242716 4.980390 -86.394400 -7.657240 -64.690500 5.348090 -0.000007 -0.000001 -43.384400 -44.565000 -87.774000 24.328600 0.000019 0.000005 19.432800 8.429330 -67.437600 22.291600 -0.000001 0.000005 23.471300 5.338830 -1.044750 12.994500 -0.242716 -4.980390 92.208000 -6.321840 -70.702400 -5.348130 -0.000001 -0.000004 -43.435600 -43.290700 -89.761800 -24.328900 0.000322 -0.000009 2.636960 1.242060 -64.816400 -22.291500 -0.000108 -0.000004 20.265400 5.515770 -7.182150 -2.192480 -6.469440 -0.000000 -176.442000 -12.994000 -3.672530 39.081100 -0.000007 -0.000012 -0.154784 0.307237 26.738900 40.985400 -0.000006 -0.000013 0.346389 4.859560 -69.410400 11.754300 -0.000000 0.000003 -0.000261 -0.002314 -16.664200 -2.192510 6.469440 -0.000001 175.189000 22.348300 178.548000 -39.081100 -0.002282 -0.040193 0.001775 0.003189 25.712900 -40.985400 0.000008 0.000006 6.436960 14.247500 -71.322600 -11.754300 -0.000006 -0.000006 -0.000406 -0.006571 -16.840700
0.000000 0.000000 0.000000 0.000000 0.000000 -0.000000 0.305527 91.410800 0.943063 89.507700 -2.349210 3.766950 15.735700 0.000005 -0.000001 87.207000 86.910900 -87.812500 8.984550 -0.406207 -0.000000 -1.596180 -0.251526 -1.214070 16.377300 -0.000001 -0.000001 2.533690 -2.733040 2.553310 6.456720 -0.000001 -0.000000 -2.652460 -1.382850 3.434740 12.994200 -0.242716 4.980390 -87.073400 -6.449260 -65.528300 5.348090 -0.000007 -0.000001 -40.231300 -41.052400 -78.824800 24.328600 0.000019 0.000005 19.970000 5.575780 -75.031000 22.291600 -0.000001 0.000005 23.680100 5.333140 -0.877573 12.994500 -0.242716 -4.980390 91.615000 -4.708910 -71.045600 -5.348130 -0.000001 -0.000004 -40.117200 -39.915000 -82.720800 -24.328900 0.000322 -0.000009 2.081410 0.682580 -71.872400 -22.291500 -0.000108 -0.000004 19.855500 5.497830 -6.446000 -2.192480 -6.469440 -0.000000 -176.372000 -13.154900 -3.712940 39.081100 -0.000007 -0.000012 -0.154299 0.303697 26.933900 40.985400 -0.000006 -0.000013 0.442324 5.115100 -69.379900 11.754300 -0.000000 0.000003 -0.000260 -0.002306 -16.663900 -2.192510 6.469440 -0.000001 175.067000 22.630000 178.614000 -39.081100 -0.002282 -0.040193 -0.016978 0.041963 25.802400 -40.985400 0.000008 0.000006 6.085510 14.575000 -71.162800 -11.754300 -0.000006 -0.000006 -0.000297 -0.004864 -16.771400
0.000000 0.000000 0.000000 0.000000 0.000000 -0.000000 0.351348 91.399900 0.789804 89.456000 -2.389920 3.942030 15.735700 0.000005 -0.000001 86.936300 86.682600 -87.474900 8.984550 -0.406207 -0.000000 -1.141900 -0.312670 -1.079900 16.377300 -0.000001 -0.000001 1.949060 -2.743900 2.548860 6.456720 -0.000001 -0.000000 -2.737890 -1.204880 3.176000 12.994200 -0.242716 4.980390 -87.864400 -4.898690 -66.410600 5.348090 -0.000007 -0.000001 -36.714200 -36.336000 -69.238700 24.328600 0.000019 0.000005 19.987000 3.042600 -81.696600 22.291600 -0.000001 0.000005 23.785900 5.331010 -0.814930 12.994500 -0.242716 -4.980390 91.015100 -3.064240 -71.662700 -5.348130 -0.000001 -0.000004 -36.852100 -35.097300 -74.944800 -24.328900 0.000322 -0.000009 1.243590 0.244809 -78.912500 -22.291500 -0.000108 -0.000004 19.573600 5.492270 -6.225330 -2.192480 -6.469440 -0.000000 -176.305000 -13.375100 -3.728010 39.081100 -0.000007 -0.000012 -0.151014 0.294743 27.128900 40.985400 -0.000006 -0.000013 0.531306 5.250100 -69.381500 11.754300 -0.000000 0.000003 -0.000255 -0.002268 -16.662500 -2.192510 6.469440 -0.000001 174.971000 22.821000 178.655000 -39.081100 -0.002282 -0.040193 -0.032075 0.072871 25.900800 -40.985400 0.000008 0.000006 5.881230 14.882600 -71.043700 -11.754300 -0.000006 -0.000006 -0.000226 -0.003721 -16.724900
0.000000 0.000000 0.000000 0.000000 0.000000 -0.000000 0.402390 91.390000 0.655470 89.428600 -2.505050 4.097840 15.735700 0.000005 -0.000001 86.544100 86.517200 -87.032700 8.984550 -0.406207 -0.000000 -0.814644 -0.383228 -0.979495 16.377300 -0.000001 -0.000001 1.553060 -2.538300 2.530710 6.456720 -0.000001 -0.000000 -2.844280 -1.135420 3.084280 12.994200 -0.242716 4.980390 -88.704800 -3.058540 -67.036900 5.348090 -0.000007 -0.000001 -33.700300 -29.994300 -60.341500 24.328600 0.000019 0.000005 20.794500 1.415730 -86.276900 22.291600 -0.000001 0.000005 23.135800 5.343120 -1.172230 12.994500 -0.242716 -4.980390 90.389800 -1.246210 -72.634600 -5.348130 -0.000001 -0.000004 -33.171500 -28.855700 -66.261300 -24.328900 0.000322 -0.000009 0.075421 0.007091 -85.092000 -22.291500 -0.000108 -0.000004 19.476100 5.489110 -6.100870 -2.192480 -6.469440 -0.000000 -176.265000 -13.562500 -3.720900 39.081100 -0.000007 -0.000012 -0.149960 0.290779 27.281100 40.985400 -0.000006 -0.000013 0.599495 5.327000 -69.381100 11.754300 -0.000000 0.000003 -0.000249 -0.002228 -16.661000 -2.192510 6.469440 -0.000001 174.859000 22.915700 178.673000 -39.081100 -0.002282 -0.040193 -0.048712 0.106720 25.987600 -40.985400 0.000008 0.000006 5.566580 15.209200 -70.885500 -11.754300 -0.000006 -0.000006 -0.000125 -0.002080 -16.658300
0.000000 0.000000 0.000000 0.000000 0.000000 -0.000000 0.454351 91.370300 0.546915 89.422900 -2.675380 4.242980 15.735700 0.000005 -0.000001 85.829500 86.338800 -86.277200 8.984550 -0.406207 -0.000000 -0.464714 -0.500259 -0.896884 16.377300 -0.000001 -0.000001 1.105120 -2.143670 2.387640 6.456720 -0.000001 -0.000000 -2.933330 -1.157720 3.207670 12.994200 -0.242716 4.980390 -89.469300 -1.271700 -67.347900 5.348090 -0.000007 -0.000001 -32.292100 -22.333900 -52.481000 24.328600 0.000019 0.000005 21.381600 0.644896 -88.353400 22.291600 -0.000001 0.000005 21.714100 5.358610 -1.637950 12.994500 -0.242716 -4.980390 89.787400 0.733802 -73.830200 -5.348130 -0.000001 -0.000004 -30.280900 -21.147900 -57.768600 -24.328900 0.000322 -0.000009 0.188063 0.002612 -89.240400 -22.291500 -0.000108 -0.000004 19.011800 5.482660 -5.848260 -2.192480 -6.469440 -0.000000 -176.228000 -13.890500 -3.720630 39.081100 -0.000007 -0.000012 -0.149492 0.287596 27.465500 40.985400 -0.000006 -0.000013 0.688891 5.480820 -69.411200 11.754300 -0.000000 0.000003 -0.000257 -0.002287 -16.663200 -2.192510 6.469440 -0.000001 174.725000 22.922000 178.666000 -39.081100 -0.002282 -0.040193 -0.068458 0.146372 26.119400 -40.985400 0.000008 0.000006 5.184370 15.482700 -70.739800 -11.754300 -0.000006 -0.000006 -0.000089 -0.001481 -16.634000
